:SAMPLES-PER-SECOND 30
:FULLY-SPECIFIED
:DEGREES
414
root  -8.57336 29.6759 34.0733 -165.353 -79.8169 175.953
RightUpLeg  -15.5164 -1.98811 -0.429953
RightLeg  49.0446 -6.00917 -6.09173
RightFoot  -26.9038 0.8474 3.91937
RightToes  -32.3902 -0.160722 -0.268231
Spine  9.15663 2.47528 0.936104
Spine1  15.1568 7.86982 -2.16545
HEad  37.7124 -6.7529 10.1379
LeftShoulder1  0 -2.42657e-020 -4.95415e-022
LeftArm  -13.2888 -11.105 -92.8413
LeftForeArm  21.4826 -31.2726 -6.14243
LeftHand  0.023065 -3.97875 -1.03578
RightShoulder  0 2.42657e-020 1.07489e-018
RightArm  -46.8357 31.9098 76.8553
RightForeArm  81.6509 1.06593 0.0971706
RightHand  0.693764 12.6497 6.62638
LeftUpLeg  -47.4583 -10.7858 10.9863
LeftLeg  75.9786 -1.79696 -5.63218
LeftFoot  -13.7997 0.174973 1.44584
LeftToes  -15.1785 3.33339e-006 -4.73431e-007
415
root  -11.3028 30.481 33.9261 -148.503 -82.1803 159.077
RightUpLeg  -7.61215 -3.09249 -2.41988
RightLeg  42.241 -8.07574 -6.41195
RightFoot  -19.3893 0.543419 3.5578
RightToes  -40.8576 -0.22537 -0.319915
Spine  7.93581 2.5418 -0.109112
Spine1  13.1645 8.17751 -3.86345
HEad  37.9316 -11.4809 13.039
LeftShoulder1  0 -2.42657e-020 -4.95415e-022
LeftArm  -11.2857 -9.12668 -90.3352
LeftForeArm  21.6988 -36.609 -7.52548
LeftHand  0.0530065 -4.73156 -1.65533
RightShoulder  0 2.42657e-020 1.07489e-018
RightArm  -42.0983 22.9859 77.6578
RightForeArm  78.2694 5.51528 0.889099
RightHand  -0.442773 18.4348 -2.35882
LeftUpLeg  -48.5227 -9.74762 10.9162
LeftLeg  59.2618 -0.884524 -1.30083
LeftFoot  -13.2043 0.0320453 0.276858
LeftToes  -10.8651 3.33339e-006 -4.73431e-007
416
root  -14.1421 31.0364 33.7718 -136.578 -82.6791 147.261
RightUpLeg  -1.13063 -3.56166 -3.90914
RightLeg  37.1862 -9.00605 -5.93001
RightFoot  -10.6042 0.170261 2.21216
RightToes  -49.9365 -0.302318 -0.364106
Spine  7.04015 2.72674 -0.946365
Spine1  11.7698 8.19206 -4.50222
HEad  36.3223 -15.706 15.1963
LeftShoulder1  0 -2.42657e-020 -4.95415e-022
LeftArm  -8.919 -7.29837 -87.9914
LeftForeArm  24.2203 -44.5466 -10.0046
LeftHand  0.125427 -5.83407 -2.83441
RightShoulder  0 2.42657e-020 1.07489e-018
RightArm  -32.9547 14.1044 77.8362
RightForeArm  66.378 10.319 1.78032
RightHand  -1.89423 20.5417 -10.0587
LeftUpLeg  -46.4289 -7.28492 10.3401
LeftLeg  39.9156 0.597032 0.432167
LeftFoot  -10.1973 -0.0278195 -0.311804
LeftToes  -7.97657 3.33339e-006 -4.73431e-007
417
root  -17.1616 31.1579 33.5772 -138.175 -82.8448 148.295
RightUpLeg  5.06501 0.537069 -2.6405
RightLeg  34.6185 -11.4735 -6.80712
RightFoot  -3.66952 0.0208601 1.02893
RightToes  -45.894 -0.267195 -0.345939
Spine  6.76225 2.98193 -1.40446
Spine1  11.5802 8.04005 -4.13985
HEad  33.6749 -19.2559 17.3314
LeftShoulder1  0 -2.42657e-020 -4.95415e-022
LeftArm  -6.52401 -7.15569 -86.4454
LeftForeArm  28.8603 -51.8826 -13.017
LeftHand  0.126559 -6.83003 -2.49307
RightShoulder  0 2.42657e-020 1.07489e-018
RightArm  -30.4272 7.55796 77.6613
RightForeArm  58.0285 12.8202 2.25743
RightHand  -1.97992 19.4068 -11.1744
LeftUpLeg  -43.4655 -3.70968 9.79905
LeftLeg  25.5103 -3.41453 -1.3697
LeftFoot  -5.39512 0.00626811 0.133026
LeftToes  -19.317 3.33339e-006 -4.73431e-007
418
root  -20.1273 30.8679 33.5623 -134.181 -82.5263 143.913
RightUpLeg  7.72966 3.7904 -1.93466
RightLeg  38.3615 -12.6646 -8.63738
RightFoot  -0.0620963 -0.000138908 0.1226
RightToes  -30.3898 -0.146614 -0.254666
Spine  6.2867 2.85805 -2.00128
Spine1  10.8547 7.26714 -4.42156
HEad  32.0438 -22.5903 18.7497
LeftShoulder1  0 -2.42657e-020 -4.95415e-022
LeftArm  -5.20861 -8.20727 -85.5056
LeftForeArm  32.5236 -57.9557 -16.419
LeftHand  0.245363 -6.83627 -4.4807
RightShoulder  0 2.42657e-020 1.07489e-018
RightArm  -34.0976 2.83353 78.1019
RightForeArm  54.6654 12.5293 2.21055
RightHand  -1.64304 19.3029 -9.27234
LeftUpLeg  -42.4975 -2.70035 8.8485
LeftLeg  21.7803 -8.25493 -2.68916
LeftFoot  -3.45825 0.0094007 0.311394
LeftToes  -23.5222 3.33339e-006 -4.73431e-007
419
root  -23.0895 30.2289 33.7244 -119.364 -81.6182 127.471
RightUpLeg  9.10413 4.91234 -2.60485
RightLeg  46.1298 -12.1344 -10.9078
RightFoot  -0.815013 -0.00078854 0.26691
RightToes  -26.8387 -0.122769 -0.229405
Spine  6.18348 2.0852 -3.09183
Spine1  10.8557 5.22668 -5.71152
HEad  30.4105 -26.8959 20.9117
LeftShoulder1  0 -2.42657e-020 -4.95415e-022
LeftArm  -4.34948 -11.7602 -84.6473
LeftForeArm  35.4325 -62.5221 -19.9095
LeftHand  0.477176 -7.57985 -7.57081
RightShoulder  0 2.42657e-020 1.07489e-018
RightArm  -38.3101 -1.91724 79.2674
RightForeArm  54.7791 13.0548 2.30747
RightHand  -1.26644 19.0744 -7.1597
LeftUpLeg  -42.6071 -6.98924 7.27753
LeftLeg  30.7169 -12.4854 -6.29921
LeftFoot  4.63979 0.054575 -1.34708
LeftToes  -37.7183 3.33339e-006 -4.73431e-007
420
root  -25.8003 29.5709 33.6277 -98.9112 -81.1194 104.257
RightUpLeg  8.14659 2.78991 -2.29278
RightLeg  57.1773 -9.44181 -12.5574
RightFoot  -5.49571 0.0523789 1.46902
RightToes  -22.075 -0.0933256 -0.193293
Spine  6.70629 0.417268 -3.85303
Spine1  12.2469 1.22239 -6.00463
HEad  27.3001 -32.4494 24.2845
LeftShoulder1  0 -2.42657e-020 -4.95415e-022
LeftArm  -3.67869 -17.4974 -83.5625
LeftForeArm  38.6399 -64.9735 -22.3059
LeftHand  0.731767 -8.01047 -10.8016
RightShoulder  0 2.42657e-020 1.07489e-018
RightArm  -38.0437 -7.33077 80.6361
RightForeArm  49.8375 16.0397 2.87733
RightHand  -1.32605 18.8475 -7.60946
LeftUpLeg  -42.9996 -10.1717 4.80008
LeftLeg  42.5976 -13.1714 -10.4296
LeftFoot  3.97973 0.0502118 -1.44514
LeftToes  -44.9981 3.33339e-006 -4.73431e-007
421
root  -28.4093 29.2109 33.3891 -105.444 -79.2072 109.161
RightUpLeg  2.43004 -0.190484 -4.61128
RightLeg  68.7878 -6.76857 -14.3838
RightFoot  -8.16836 0.129422 2.19014
RightToes  -19.4562 -0.0784479 -0.172435
Spine  7.16891 -0.192013 -4.73414
Spine1  13.6206 -0.484985 -6.84495
HEad  21.7263 -36.5414 29.5196
LeftShoulder1  0 -2.42657e-020 -4.95415e-022
LeftArm  -4.4654 -21.8776 -81.4023
LeftForeArm  42.8533 -68.9024 -27.3706
LeftHand  1.03006 -7.82459 -15.3598
RightShoulder  0 2.42657e-020 1.07489e-018
RightArm  -36.9509 -12.0052 82.8094
RightForeArm  45.2546 19.7201 3.60131
RightHand  -1.46908 18.6071 -8.58285
LeftUpLeg  -39.8925 -9.45232 2.38842
LeftLeg  49.183 -11.3304 -11.3133
LeftFoot  -2.87808 0.0145334 0.578513
LeftToes  -46.5783 3.33339e-006 -4.73431e-007
422
root  -30.578 29.349 32.8303 -122.027 -77.2928 126.528
RightUpLeg  -8.24697 -4.06491 -5.63634
RightLeg  77.2929 -4.66041 -15.7018
RightFoot  -11.8206 0.306744 3.34019
RightToes  -15.5196 -0.0579158 -0.139859
Spine  6.59359 -1.08586 -5.03498
Spine1  12.8074 -2.36355 -7.74901
HEad  20.7726 -36.4112 31.0971
LeftShoulder1  0 -2.42657e-020 -4.95415e-022
LeftArm  -9.42634 -18.3032 -75.4079
LeftForeArm  66.2827 -76.8616 -49.6258
LeftHand  0.469303 -5.53899 -10.0609
RightShoulder  0 2.42657e-020 1.07489e-018
RightArm  -35.7689 -15.8976 86.0496
RightForeArm  41.5831 23.622 4.40507
RightHand  -1.42665 19.1917 -8.05647
LeftUpLeg  -36.1716 -6.50803 2.39565
LeftLeg  50.4115 -10.1666 -10.6272
LeftFoot  -7.55119 0.117851 1.78569
LeftToes  -47.4382 3.33339e-006 -4.73431e-007
423
root  -32.6101 29.9062 32.0989 -139.271 -74.4909 144.315
RightUpLeg  -18.5199 -8.01117 -3.98783
RightLeg  79.5106 -3.53157 -14.0356
RightFoot  -13.3415 0.343505 3.31413
RightToes  -15.8376 -0.0594904 -0.142542
Spine  6.25106 -1.94196 -4.76078
Spine1  12.2589 -4.16521 -7.53978
HEad  21.9859 -34.4913 30.4089
LeftShoulder1  0 -2.42657e-020 -4.95415e-022
LeftArm  -17.7755 -10.5973 -71.0159
LeftForeArm  112.179 -79.4324 -106.967
LeftHand  0.49016 -4.45259 -12.9479
RightShoulder  0 2.42657e-020 1.07489e-018
RightArm  -32.8046 -19.1705 88.0242
RightForeArm  35.7946 28.7556 5.54248
RightHand  -1.29906 20.2652 -6.89166
LeftUpLeg  -30.0054 -4.36379 3.55788
LeftLeg  47.6841 -8.41907 -8.05503
LeftFoot  -10.2136 0.175435 1.96288
LeftToes  -47.0296 3.33339e-006 -4.73431e-007
